<?xml version="1.0" encoding="utf-8"?>
<svg viewBox="0 0 500 451.859" xmlns="http://www.w3.org/2000/svg">
  <g transform="matrix(0.925638, 0, 0, 0.919573, -61.947088, -25.425227)" style="">
    <path d="m599.44 272.25h-92.648s233.8-95.602-14.719-146.48c-0.15234 0.125-12.578-1.9766-12.578-1.9766 0.003906 0.003906-14.695-53.578-14.695-58.445 0-16.703-22.121-32.199-39.465-33.98-0.15234 0-9.6719-2.7773-23.648 0.3125-11.781 2.5977-21.129 5.3867-36.188 6.8828-23.395 2.332-49.156 1.9961-69.625 4.2852-16.109 2.207-22.07 10.129-24.516 13.281-2.2109 2.8594-47.645 84.496-55.758 96.02-0.84375 1.2031 1.0547-18.66 1.0547-18.66s-217.58 59.035-45.73 138.76c-0.125-0.85938-100.93 0.78906-100.93 0.78906l98.559 134.82s-25.059 27.781-36.262 41.781c-11.199 14-35.492 68.602-35.492 68.602h493.57s-16.91-79.574-56.773-124.57c-0.94531-1.0703-33.957 16.336-33.641 14.719 0.27344-1.3086 99.484-136.15 99.484-136.15zm-244.03 81.477c-44.676 5.2539-58.25-7.8359-67.715-25.176 1.5742 0-25.844 21.5-55.805 11.512-29.965-9.9844-43.328-57.371-36.27-55.223 33.309 10.137 131.71 31.414 205.49 17.348 16.02-3.0625-1.0195 46.289-45.699 51.539z" fill="#fff"/>
  </g>
</svg>